<?xml version="1.0" standalone="no"?>
<!DOCTYPE svg PUBLIC "-//W3C//DTD SVG 20010904//EN"
 "http://www.w3.org/TR/2001/REC-SVG-20010904/DTD/svg10.dtd">
<svg version="1.0" xmlns="http://www.w3.org/2000/svg"
 width="500.000000pt" height="500.000000pt" viewBox="0 0 500.000000 500.000000"
 preserveAspectRatio="xMidYMid meet">

<g transform="translate(0.000000,500.000000) scale(0.100000,-0.100000)"
fill="#000000" stroke="none">
<path d="M0 2500 l0 -2500 2500 0 2500 0 0 2500 0 2500 -2500 0 -2500 0 0
-2500z m2073 1119 c25 -7 44 -21 57 -41 16 -26 146 -517 138 -523 -2 -1 -22
-7 -45 -13 -24 -7 -52 -25 -67 -43 -18 -21 -27 -26 -30 -17 -3 7 -26 103 -51
213 -68 291 -77 305 -200 305 -52 0 -69 4 -85 20 -28 28 -25 64 6 89 23 18 41
21 133 21 58 0 123 -5 144 -11z m1090 -213 c47 -32 62 -71 61 -161 -1 -66 -6
-90 -29 -140 -35 -74 -109 -153 -172 -186 -47 -23 -54 -24 -349 -29 -325 -5
-334 -7 -334 -59 0 -44 34 -89 77 -100 22 -6 145 -11 295 -11 l257 0 21 -27
c15 -19 19 -35 15 -53 -14 -56 -9 -55 -358 -55 -286 0 -326 2 -354 18 -72 38
-134 162 -141 277 -4 69 -2 79 20 104 15 18 39 31 68 37 25 4 187 8 361 9 311
0 317 0 349 23 51 33 102 111 107 161 9 77 17 76 -433 76 l-391 0 -13 58 c-7
31 -15 63 -17 70 -4 10 84 12 463 10 441 -3 471 -4 497 -22z m-671 -875 c26
-23 32 -36 31 -66 -2 -69 -63 -108 -128 -81 -61 26 -73 99 -26 147 39 38 80
39 123 0z m407 14 c102 -52 21 -209 -83 -160 -89 42 -62 170 37 174 10 1 31
-6 46 -14z m-737 -305 c15 -29 18 -63 18 -206 0 -120 4 -174 12 -182 10 -10 7
-18 -13 -38 l-25 -25 -26 20 c-25 20 -25 20 -64 1 -46 -24 -73 -25 -119 -6
-57 24 -77 67 -73 159 3 76 4 80 40 113 32 29 45 34 86 34 27 0 57 -7 70 -16
l22 -15 0 62 c0 42 -5 68 -16 80 -14 15 -13 19 12 38 36 28 55 24 76 -19z
m679 10 c19 -5 47 -23 62 -38 l27 -28 -31 -23 -31 -23 -23 22 c-35 33 -106 39
-134 11 -28 -28 -27 -67 2 -85 12 -7 47 -19 77 -26 105 -24 150 -64 150 -132
0 -89 -59 -132 -180 -132 -80 0 -117 13 -157 56 l-23 24 28 27 28 27 24 -25
c62 -66 190 -52 190 20 0 30 -22 42 -114 66 -86 22 -125 57 -133 119 -15 109
102 178 238 140z m1309 -18 c18 -14 24 -32 28 -75 l4 -57 44 0 c42 0 44 -1 44
-30 0 -29 -2 -30 -45 -30 l-45 0 0 -80 c0 -86 9 -100 64 -100 22 0 26 -4 26
-31 l0 -31 -62 4 c-51 4 -65 9 -85 32 -22 26 -23 34 -23 180 0 116 -3 157 -14
172 -13 17 -12 22 6 42 26 27 30 27 58 4z m-2714 -141 c38 -23 59 -77 50 -126
-8 -41 -18 -45 -112 -45 -76 0 -83 -4 -64 -41 12 -22 68 -26 102 -8 17 9 25 7
46 -15 l26 -25 -49 -22 c-80 -35 -179 -17 -204 38 -14 30 -14 188 -1 213 27
50 146 68 206 31z m161 -3 c16 -15 27 -19 31 -12 13 20 50 34 90 34 29 0 46
-7 66 -26 25 -26 26 -30 26 -155 l0 -129 -40 0 -40 0 0 109 c0 86 -3 113 -16
125 -22 22 -41 20 -69 -9 -23 -22 -25 -31 -25 -125 l0 -100 -40 0 -40 0 0 113
c0 84 -4 118 -15 134 -14 20 -13 23 11 42 33 26 32 26 61 -1z m858 7 c43 -21
55 -51 55 -138 0 -49 5 -80 16 -95 14 -21 13 -23 -13 -46 -25 -22 -29 -22 -50
-9 -13 9 -23 20 -23 26 0 6 -11 1 -24 -12 -31 -29 -83 -37 -129 -18 -39 17
-51 41 -45 97 4 43 37 67 113 81 71 13 81 20 66 48 -14 25 -67 29 -97 7 -16
-12 -22 -12 -46 2 -36 21 -35 28 5 52 39 24 125 27 172 5z m601 -6 l23 -21 27
21 c41 32 114 24 137 -16 7 -11 12 -9 26 8 11 14 32 23 62 26 38 4 50 1 75
-20 29 -25 29 -25 32 -156 l4 -131 -40 0 -40 0 -4 115 c-2 89 -6 118 -18 125
-23 15 -37 12 -60 -12 -17 -19 -20 -35 -20 -125 l0 -103 -40 0 -40 0 0 109 c0
86 -3 113 -16 125 -22 23 -40 20 -63 -10 -18 -23 -21 -41 -21 -125 l0 -99 -40
0 -40 0 0 119 c0 95 -3 121 -16 131 -13 12 -12 16 13 36 34 29 32 28 59 3z
m654 3 c44 -21 59 -61 59 -157 1 -40 6 -76 13 -83 9 -9 7 -16 -7 -32 -22 -24
-42 -25 -65 -5 -14 13 -21 12 -56 -6 -68 -35 -148 -8 -159 55 -12 59 22 101
90 111 85 13 95 17 95 34 0 39 -64 56 -105 27 -18 -12 -23 -12 -44 5 -20 16
-21 21 -10 35 7 9 22 20 34 24 36 15 118 11 155 -8z m189 -6 l22 -24 24 24
c16 16 35 24 57 24 49 0 61 -12 53 -49 -6 -30 -8 -31 -46 -25 -30 5 -44 2 -59
-11 -17 -16 -20 -31 -20 -122 l0 -103 -45 0 -45 0 0 118 c0 78 -4 122 -12 130
-9 9 -6 17 12 37 29 31 31 31 59 1z m-2914 -73 c44 -146 47 -155 54 -146 4 4
23 59 41 121 l33 112 40 0 c38 0 39 -1 32 -27 -21 -87 -77 -253 -89 -262 -8
-7 -29 -14 -48 -17 -59 -10 -82 19 -128 165 -22 71 -40 131 -40 135 0 3 18 6
39 6 l40 0 26 -87z"/>
<path d="M1997 2043 c-9 -2 -24 -17 -32 -33 -36 -69 -3 -150 59 -150 48 0 66
26 66 91 0 60 -5 71 -37 88 -23 11 -26 12 -56 4z"/>
<path d="M1317 2032 c-32 -36 -22 -52 33 -52 46 0 50 2 50 25 0 42 -54 59 -83
27z"/>
<path d="M2343 1920 c-39 -16 -23 -70 19 -70 23 0 68 43 68 65 0 17 -49 20
-87 5z"/>
<path d="M3635 1930 c-22 -3 -46 -9 -52 -13 -16 -10 -17 -39 -1 -55 31 -31
102 4 96 48 -3 23 -6 25 -43 20z"/>
</g>
</svg>
