<?xml version="1.0" standalone="no"?>
<!DOCTYPE svg PUBLIC "-//W3C//DTD SVG 20010904//EN"
 "http://www.w3.org/TR/2001/REC-SVG-20010904/DTD/svg10.dtd">
<svg version="1.0" xmlns="http://www.w3.org/2000/svg"
 width="500.000000pt" height="500.000000pt" viewBox="0 0 500.000000 500.000000"
 preserveAspectRatio="xMidYMid meet">
<metadata>
Created by potrace 1.16, written by Peter Selinger 2001-2019
</metadata>
<g transform="translate(0.000000,500.000000) scale(0.100000,-0.100000)"
fill="#000000" stroke="none">
<path d="M2210 4454 c-740 -112 -1354 -630 -1585 -1337 -78 -240 -90 -323 -90
-622 1 -244 2 -268 27 -385 178 -830 827 -1442 1659 -1564 140 -21 418 -21
558 0 563 82 1047 388 1363 858 142 212 245 462 299 726 22 103 24 141 24 370
0 229 -2 267 -24 370 -173 841 -825 1463 -1662 1585 -134 19 -437 19 -569 -1z
m1514 -890 c10 -25 7 -1367 -3 -1383 -5 -8 -16 -11 -25 -8 -14 6 -16 72 -16
687 l0 680 -1180 0 -1180 0 0 -685 c0 -678 0 -685 -20 -685 -20 0 -20 7 -20
705 l0 705 1219 0 c1102 0 1219 -2 1225 -16z m-150 -130 c14 -14 16 -85 16
-638 0 -470 -3 -625 -12 -634 -9 -9 -261 -12 -1074 -12 -953 0 -1064 2 -1078
16 -14 14 -16 85 -16 631 0 560 2 618 17 635 15 17 62 18 1074 18 948 0 1059
-2 1073 -16z m-753 -1374 c42 -23 5 -111 -68 -162 l-48 -33 -192 -3 c-175 -3
-195 -1 -230 17 -56 28 -103 82 -110 124 -11 68 -16 67 324 67 191 0 312 -4
324 -10z m-732 -9 c8 -5 11 -16 8 -25 -6 -14 -54 -16 -468 -16 l-461 0 6 -32
c9 -46 53 -98 102 -119 41 -19 84 -19 1242 -17 l1200 3 39 31 c38 31 65 70 78
112 l6 22 -469 0 c-395 0 -471 2 -481 14 -27 33 20 36 493 36 255 0 471 -3
480 -6 34 -13 10 -114 -41 -173 -18 -22 -54 -50 -81 -63 l-47 -23 -1191 0
-1190 0 -59 30 c-67 34 -108 84 -127 157 -21 83 -50 78 481 78 256 0 472 -4
480 -9z"/>
<path d="M1522 3355 l-22 -16 0 -544 c0 -528 1 -545 19 -555 13 -7 338 -10
983 -10 817 0 967 2 984 14 18 14 19 31 19 555 0 430 -3 543 -13 553 -10 10
-203 14 -980 16 -866 2 -969 1 -990 -13z m650 -335 c32 -107 63 -212 68 -233
l11 -37 242 2 241 3 42 105 c23 58 43 108 43 113 1 4 -124 7 -277 7 -153 0
-281 3 -285 6 -3 3 -3 12 0 20 7 20 601 21 609 1 2 -7 -20 -76 -50 -153 l-54
-139 -246 -3 c-268 -3 -256 1 -235 -62 9 -26 9 -34 -2 -41 -8 -4 -17 -5 -22 0
-4 4 -45 134 -91 287 l-82 279 -57 3 c-38 2 -57 7 -57 16 0 23 13 27 79 24
l64 -3 59 -195z m172 -541 c30 -35 32 -49 12 -88 -40 -76 -156 -49 -156 36 0
78 94 112 144 52z m461 6 c52 -51 14 -139 -59 -139 -43 0 -73 25 -82 70 -4 24
0 37 21 62 34 41 84 44 120 7z"/>
</g>
</svg>
