<?xml version="1.0" standalone="no"?>
<!DOCTYPE svg PUBLIC "-//W3C//DTD SVG 20010904//EN"
 "http://www.w3.org/TR/2001/REC-SVG-20010904/DTD/svg10.dtd">
<svg version="1.0" xmlns="http://www.w3.org/2000/svg"
 width="500.000000pt" height="500.000000pt" viewBox="0 0 500.000000 500.000000"
 preserveAspectRatio="xMidYMid meet">
<metadata>
Created by potrace 1.16, written by Peter Selinger 2001-2019
</metadata>
<g transform="translate(0.000000,500.000000) scale(0.100000,-0.100000)"
fill="#000000" stroke="none">
<path d="M2210 4454 c-740 -112 -1354 -630 -1585 -1337 -78 -240 -90 -323 -90
-622 1 -244 2 -268 27 -385 178 -830 827 -1442 1659 -1564 140 -21 418 -21
558 0 563 82 1047 388 1363 858 142 212 245 462 299 726 22 103 24 141 24 370
0 229 -2 267 -24 370 -173 841 -825 1463 -1662 1585 -134 19 -437 19 -569 -1z
m1015 -1843 c0 -323 -3 -415 -12 -418 -10 -4 -13 81 -13 401 l0 406 -700 0
-700 0 0 -406 c0 -320 -3 -405 -12 -402 -10 4 -14 96 -16 409 -1 222 0 410 3
417 3 10 154 12 727 10 l723 -3 0 -414z m-95 329 c19 -19 20 -33 20 -375 0
-343 -1 -356 -20 -375 -20 -20 -30 -20 -639 -18 -341 2 -623 7 -628 11 -9 10
-17 709 -8 744 3 12 13 24 23 26 9 3 290 5 625 6 594 1 607 1 627 -19z m-445
-814 c16 -12 18 -19 10 -42 -6 -15 -23 -36 -38 -48 -25 -19 -42 -21 -157 -21
-114 0 -132 2 -156 21 -39 28 -53 73 -28 91 26 19 342 19 369 -1z m-427 -13
c3 -10 -56 -13 -273 -13 l-276 0 6 -22 c4 -13 20 -35 36 -50 l29 -28 720 0
720 0 29 28 c16 15 32 37 36 50 l6 22 -281 0 c-221 0 -281 3 -278 13 4 9 71
13 284 14 153 2 285 -1 293 -6 33 -21 -17 -113 -75 -137 -49 -21 -1419 -21
-1468 0 -58 24 -108 116 -75 137 8 5 137 8 288 6 209 -1 275 -5 279 -14z"/>
<path d="M1915 2887 c-3 -6 -4 -156 -3 -332 l3 -320 585 0 585 0 0 330 0 330
-583 3 c-463 2 -584 0 -587 -11z m353 -79 c5 -7 17 -40 27 -73 9 -33 26 -90
37 -127 l20 -68 142 0 143 0 25 65 26 65 -164 2 c-101 2 -164 7 -164 13 0 13
340 19 352 7 5 -5 -5 -45 -24 -93 l-34 -84 -145 -3 -145 -3 4 -29 c8 -57 -16
-29 -38 43 -83 279 -78 267 -110 267 -29 0 -45 12 -33 24 11 11 70 6 81 -6z"/>
</g>
</svg>
